<svg xmlns="http://www.w3.org/2000/svg" viewBox="0 0 200 240" width="200" height="240">
<defs><radialGradient id="face" cx=".45" cy=".4" r=".6"><stop offset="0" stop-color="#ffd9b8"/><stop offset="1" stop-color="#e8a983"/></radialGradient></defs>
<g stroke="#2b1d16" stroke-width="4" stroke-linejoin="round">
<path d="M48 104 C 20 100 18 58 50 56 C 52 22 98 14 108 40 C 124 14 172 26 160 62 C 190 66 184 108 152 106 L 150 128 L 50 128 Z" fill="#fff"/>
<path d="M58 92 v30 M84 86 v36 M112 86 v36 M140 92 v30" stroke-width="3" opacity=".35" fill="none"/>
<rect x="48" y="118" width="104" height="18" rx="4" fill="#fff"/>
<ellipse cx="100" cy="176" rx="56" ry="54" fill="url(#face)"/>
<path d="M60 150 l26 8" stroke-width="7" stroke-linecap="round"/>
<path d="M114 156 l26 -12" stroke-width="7" stroke-linecap="round"/>
<circle cx="78" cy="168" r="5" fill="#2b1d16"/><circle cx="124" cy="166" r="5" fill="#2b1d16"/>
<path d="M98 172 q6 14 -2 20" fill="none" stroke-width="3"/>
<path d="M100 196 C 86 186 62 186 50 202 C 62 200 70 206 74 210 C 84 204 94 204 100 202 C 106 204 116 204 126 210 C 130 206 138 200 150 202 C 138 186 114 186 100 196 Z" fill="#5a3a26"/>
<path d="M86 218 q14 -6 28 0" fill="none" stroke-width="4" stroke-linecap="round"/>
</g>
<rect x="62" y="126" width="76" height="6" fill="#b3202a"/>
</svg>
